<svg xmlns="http://www.w3.org/2000/svg" viewBox="0 0 800 600" role="img" aria-labelledby="title desc">
  <title id="title">꿈붓 시리즈 한글읽기책</title>
  <desc id="desc">아이와 글자가 색색의 계단을 오르며 한국어와 친해지는 모습을 표현한 표지</desc>
  <rect width="800" height="600" fill="#FFF8F1"/>
  <circle cx="665" cy="105" r="115" fill="#DFF4FC"/>
  <circle cx="115" cy="495" r="95" fill="#F1E3FB"/>
  <path d="M120 455h145v-90h145v-90h145v-90h125" fill="none" stroke="#B76CF0" stroke-width="34" stroke-linejoin="round"/>
  <g fill="#43B4EC" font-family="Arial, sans-serif" font-size="48" font-weight="700">
    <text x="188" y="430">ㄱ</text><text x="330" y="340">가</text><text x="475" y="250">꿈</text><text x="615" y="160">책</text>
  </g>
  <g transform="translate(265 245)">
    <circle cx="0" cy="0" r="25" fill="#82C98A"/>
    <path d="M0 28v68M0 52l-42 28M0 52l40-30M0 96l-35 52M0 96l42 45" fill="none" stroke="#262033" stroke-width="15" stroke-linecap="round"/>
    <path d="M34 18l70-48" stroke="#8B5A3C" stroke-width="10" stroke-linecap="round"/>
    <path d="M103-31l22-15-8 25Z" fill="#262033"/>
  </g>
  <text x="62" y="92" fill="#262033" font-family="Arial, sans-serif" font-size="62" font-weight="800">꿈붓 시리즈</text>
  <text x="65" y="145" fill="#B76CF0" font-family="Arial, sans-serif" font-size="28" font-weight="700" letter-spacing="3">한글읽기책 · STEP BY STEP</text>
</svg>
